<?xml version="1.0" encoding="utf-8"?>
<svg viewBox="0 0 1649 588.42578125" width="1649" height="588.42578125" xmlns="http://www.w3.org/2000/svg">
  <defs>
    <style id="bx-google-fonts">@import url(https://fonts.googleapis.com/css?family=Exo+2:100,100italic,200,200italic,300,300italic,400,400italic,500,500italic,600,600italic,700,700italic,800,800italic,900,900italic);</style>
  </defs>
  <ellipse style="" transform="matrix(-0.7071070075035095, 0.7071070075035095, -0.7071070075035095, -0.7071070075035095, 698.2234497070312, 170.06820678710935)" cx="373.462" cy="197.895" rx="289.965" ry="290.936"/>
  <g style="font-style:normal;font-weight:400;font-size:15.27499962px;font-family:'MS Shell Dlg 2';fill:#ffffff;fill-rule:evenodd;stroke:#99763d;stroke-width:1.56666827;stroke-linecap:square;stroke-linejoin:bevel;stroke-miterlimit:4;stroke-dasharray:none;stroke-opacity:1" id="g3497" font-style="normal" font-weight="400" font-size="15.275" transform="matrix(1, 0, 0, 1, 294.21289062499994, 294.212890625)">
    <path style="fill: rgb(255, 255, 255); fill-rule: evenodd; stroke: rgb(255, 255, 255); stroke-width: 1.56667; stroke-miterlimit: 4; stroke-dasharray: none; stroke-opacity: 1;" id="path3499" d="M 280.821,0 C 280.821,-155.093 155.093,-280.821 0,-280.821 -155.093,-280.821 -280.821,-155.093 -280.821,0 -280.821,155.093 -155.093,280.821 0,280.821 155.093,280.821 280.821,155.093 280.821,0" vector-effect="none"/>
  </g>
  <ellipse style="stroke-width: 8; fill: none; stroke: rgb(0, 0, 0);" transform="matrix(-0.5394269824028015, 0.8420320153236389, -0.8420320153236389, -0.5394269824028015, 951.9160766601561, -461.0985107421875)" cx="990.78" cy="146.372" rx="263" ry="267.006"/>
  <g style="font-style: normal; font-weight: 400; font-size: 15.275px; font-family: &quot;MS Shell Dlg 2&quot;; fill: rgb(255, 86, 0); fill-rule: evenodd; stroke: rgb(255, 86, 0); stroke-width: 2; stroke-linecap: square; stroke-linejoin: bevel; stroke-opacity: 1;" id="g3491" font-style="normal" font-weight="400" font-size="15.275" transform="matrix(0.7159219980239868, 0, 0, 0.7159219980239868, 326.2153930664062, 475.00506591796875)">
    <path style="fill-rule: evenodd; stroke: rgb(255, 86, 0); stroke-opacity: 1; fill: rgb(0, 0, 0);" id="path3493" d="M 32.1383,0 C 32.1383,-17.7495 17.7495,-32.1383 0,-32.1383 -17.7495,-32.1383 -32.1383,-17.7495 -32.1383,0 -32.1383,17.7495 -17.7495,32.1383 0,32.1383 17.7495,32.1383 32.1383,17.7495 32.1383,0" vector-effect="none"/>
  </g>
  <path d="M 1344.345 630.446 L 1343.025 642.666 L 1331.375 644.166 L 1331.375 644.166 C 1332.875 647.673 1333.625 652.123 1333.625 657.516 L 1333.625 657.516 L 1333.625 657.516 C 1333.625 668.296 1330.398 675.939 1323.945 680.446 L 1323.945 680.446 L 1323.945 680.446 C 1317.492 684.959 1306.182 687.216 1290.015 687.216 L 1290.015 687.216 L 1290.015 687.216 C 1284.622 687.216 1279.295 686.903 1274.035 686.276 L 1274.035 686.276 L 1274.035 686.276 C 1272.528 688.283 1272.245 690.539 1273.185 693.046 L 1273.185 693.046 L 1273.185 693.046 C 1274.125 695.553 1276.225 696.993 1279.485 697.366 L 1279.485 697.366 L 1313.135 701.316 L 1313.135 701.316 C 1322.662 702.443 1329.525 705.199 1333.725 709.586 L 1333.725 709.586 L 1333.725 709.586 C 1337.918 713.973 1340.015 720.429 1340.015 728.956 L 1340.015 728.956 L 1340.015 728.956 C 1340.015 740.736 1336.475 748.693 1329.395 752.826 L 1329.395 752.826 L 1329.395 752.826 C 1322.315 756.966 1309.625 759.036 1291.325 759.036 L 1291.325 759.036 L 1291.325 759.036 C 1272.278 759.036 1259.368 757.063 1252.595 753.116 L 1252.595 753.116 L 1252.595 753.116 C 1245.828 749.163 1242.445 741.923 1242.445 731.396 L 1242.445 731.396 L 1242.445 731.396 C 1242.445 726.636 1243.542 722.719 1245.735 719.646 L 1245.735 719.646 L 1245.735 719.646 C 1247.928 716.579 1251.722 713.793 1257.115 711.286 L 1257.115 711.286 L 1257.115 711.286 C 1252.848 707.146 1251.125 702.036 1251.945 695.956 L 1251.945 695.956 L 1251.945 695.956 C 1252.758 689.883 1255.482 685.466 1260.115 682.706 L 1260.115 682.706 L 1260.115 682.706 C 1250.968 678.446 1246.395 670.113 1246.395 657.706 L 1246.395 657.706 L 1246.395 657.706 C 1246.395 646.799 1249.655 639.089 1256.175 634.576 L 1256.175 634.576 L 1256.175 634.576 C 1262.688 630.063 1274.028 627.806 1290.195 627.806 L 1290.195 627.806 L 1290.195 627.806 C 1299.975 627.806 1308.062 628.686 1314.455 630.446 L 1314.455 630.446 L 1344.345 630.446 M 1290.015 669.546 L 1290.015 669.546 L 1290.015 669.546 C 1296.782 669.546 1301.448 668.669 1304.015 666.916 L 1304.015 666.916 L 1304.015 666.916 C 1306.588 665.163 1307.875 662.029 1307.875 657.516 L 1307.875 657.516 L 1307.875 657.516 C 1307.875 652.876 1306.622 649.743 1304.115 648.116 L 1304.115 648.116 L 1304.115 648.116 C 1301.608 646.483 1296.908 645.666 1290.015 645.666 L 1290.015 645.666 L 1290.015 645.666 C 1283.122 645.666 1278.388 646.483 1275.815 648.116 L 1275.815 648.116 L 1275.815 648.116 C 1273.248 649.743 1271.965 652.876 1271.965 657.516 L 1271.965 657.516 L 1271.965 657.516 C 1271.965 662.029 1273.248 665.163 1275.815 666.916 L 1275.815 666.916 L 1275.815 666.916 C 1278.388 668.669 1283.122 669.546 1290.015 669.546 M 1298.285 719.556 L 1298.285 719.556 L 1274.975 717.106 L 1274.975 717.106 C 1270.962 720.366 1268.955 723.939 1268.955 727.826 L 1268.955 727.826 L 1268.955 727.826 C 1268.955 732.339 1270.335 735.223 1273.095 736.476 L 1273.095 736.476 L 1273.095 736.476 C 1275.848 737.729 1281.802 738.356 1290.955 738.356 L 1290.955 738.356 L 1290.955 738.356 C 1300.102 738.356 1306.148 737.696 1309.095 736.376 L 1309.095 736.376 L 1309.095 736.376 C 1312.042 735.063 1313.515 732.339 1313.515 728.206 L 1313.515 728.206 L 1313.515 728.206 C 1313.515 724.946 1312.575 722.876 1310.695 721.996 L 1310.695 721.996 L 1310.695 721.996 C 1308.815 721.123 1304.678 720.309 1298.285 719.556 M 1366.526 589.456 L 1366.526 589.456 L 1378.936 589.456 L 1378.936 589.456 C 1384.322 589.456 1387.016 592.153 1387.016 597.546 L 1387.016 597.546 L 1387.016 607.696 L 1387.016 607.696 C 1387.016 613.083 1384.322 615.776 1378.936 615.776 L 1378.936 615.776 L 1366.526 615.776 L 1366.526 615.776 C 1361.139 615.776 1358.446 613.083 1358.446 607.696 L 1358.446 607.696 L 1358.446 597.546 L 1358.446 597.546 C 1358.446 592.153 1361.139 589.456 1366.526 589.456 M 1386.646 630.446 L 1386.646 723.126 L 1359.006 723.126 L 1359.006 630.446 L 1386.646 630.446 M 1451.313 688.726 L 1451.313 688.726 L 1428.193 682.516 L 1428.193 682.516 C 1419.666 680.009 1413.773 676.596 1410.513 672.276 L 1410.513 672.276 L 1410.513 672.276 C 1407.26 667.949 1405.633 661.963 1405.633 654.316 L 1405.633 654.316 L 1405.633 654.316 C 1405.633 644.669 1408.61 637.839 1414.563 633.826 L 1414.563 633.826 L 1414.563 633.826 C 1420.516 629.813 1430.7 627.806 1445.113 627.806 L 1445.113 627.806 L 1445.113 627.806 C 1461.78 628.059 1476.066 629.253 1487.973 631.386 L 1487.973 631.386 L 1486.093 649.246 L 1486.093 649.246 C 1470.3 648.993 1458.393 648.866 1450.373 648.866 L 1450.373 648.866 L 1450.373 648.866 C 1445.986 648.866 1442.946 648.896 1441.253 648.956 L 1441.253 648.956 L 1441.253 648.956 C 1439.56 649.023 1437.87 649.243 1436.183 649.616 L 1436.183 649.616 L 1436.183 649.616 C 1434.49 649.996 1433.453 650.593 1433.073 651.406 L 1433.073 651.406 L 1433.073 651.406 C 1432.7 652.219 1432.513 653.439 1432.513 655.066 L 1432.513 655.066 L 1432.513 655.066 C 1432.513 655.693 1432.543 656.259 1432.603 656.766 L 1432.603 656.766 L 1432.603 656.766 C 1432.67 657.266 1432.826 657.736 1433.073 658.176 L 1433.073 658.176 L 1433.073 658.176 C 1433.326 658.609 1433.546 658.953 1433.733 659.206 L 1433.733 659.206 L 1433.733 659.206 C 1433.92 659.459 1434.266 659.743 1434.773 660.056 L 1434.773 660.056 L 1434.773 660.056 C 1435.273 660.369 1435.68 660.586 1435.993 660.706 L 1435.993 660.706 L 1435.993 660.706 C 1436.306 660.833 1436.87 661.053 1437.683 661.366 L 1437.683 661.366 L 1437.683 661.366 C 1438.496 661.679 1439.123 661.899 1439.563 662.026 L 1439.563 662.026 L 1439.563 662.026 C 1440.003 662.153 1440.816 662.373 1442.003 662.686 L 1442.003 662.686 L 1442.003 662.686 C 1443.196 662.999 1444.106 663.219 1444.733 663.346 L 1444.733 663.346 L 1468.423 669.736 L 1468.423 669.736 C 1476.696 672.116 1482.586 675.279 1486.093 679.226 L 1486.093 679.226 L 1486.093 679.226 C 1489.6 683.173 1491.353 689.033 1491.353 696.806 L 1491.353 696.806 L 1491.353 696.806 C 1491.353 707.833 1488.16 715.323 1481.773 719.276 L 1481.773 719.276 L 1481.773 719.276 C 1475.38 723.223 1464.413 725.196 1448.873 725.196 L 1448.873 725.196 L 1448.873 725.196 C 1433.833 725.196 1419.983 724.129 1407.323 721.996 L 1407.323 721.996 L 1409.013 703.946 L 1409.013 703.946 C 1413.526 704.199 1424.243 704.326 1441.163 704.326 L 1441.163 704.326 L 1441.163 704.326 C 1450.81 704.326 1457.106 703.919 1460.053 703.106 L 1460.053 703.106 L 1460.053 703.106 C 1463 702.293 1464.473 700.379 1464.473 697.366 L 1464.473 697.366 L 1464.473 697.366 C 1464.473 696.739 1464.443 696.176 1464.383 695.676 L 1464.383 695.676 L 1464.383 695.676 C 1464.316 695.176 1464.16 694.706 1463.913 694.266 L 1463.913 694.266 L 1463.913 694.266 C 1463.66 693.826 1463.406 693.483 1463.153 693.236 L 1463.153 693.236 L 1463.153 693.236 C 1462.906 692.983 1462.5 692.699 1461.933 692.386 L 1461.933 692.386 L 1461.933 692.386 C 1461.373 692.073 1460.936 691.823 1460.623 691.636 L 1460.623 691.636 L 1460.623 691.636 C 1460.31 691.449 1459.713 691.199 1458.833 690.886 L 1458.833 690.886 L 1458.833 690.886 C 1457.953 690.573 1457.263 690.353 1456.763 690.226 L 1456.763 690.226 L 1456.763 690.226 C 1456.263 690.099 1455.386 689.879 1454.133 689.566 L 1454.133 689.566 L 1454.133 689.566 C 1452.88 689.253 1451.94 688.973 1451.313 688.726 M 1571.068 649.056 L 1545.308 649.056 L 1545.308 692.856 L 1545.308 692.856 C 1545.308 696.369 1546.061 698.813 1547.568 700.186 L 1547.568 700.186 L 1547.568 700.186 C 1549.074 701.566 1551.708 702.256 1555.468 702.256 L 1555.468 702.256 L 1567.308 702.256 L 1570.318 721.626 L 1570.318 721.626 C 1563.171 724.133 1554.461 725.386 1544.188 725.386 L 1544.188 725.386 L 1544.188 725.386 C 1535.788 725.386 1529.268 723.036 1524.628 718.336 L 1524.628 718.336 L 1524.628 718.336 C 1519.995 713.636 1517.678 707.086 1517.678 698.686 L 1517.678 698.686 L 1517.678 649.056 L 1501.318 649.056 L 1501.318 631.386 L 1517.678 630.446 L 1517.678 604.496 L 1545.308 604.496 L 1545.308 630.446 L 1571.068 630.446 L 1571.068 649.056 M 1649.465 630.446 L 1679.165 630.446 L 1646.265 724.446 L 1646.265 724.446 C 1644.511 729.459 1642.351 734.096 1639.785 738.356 L 1639.785 738.356 L 1639.785 738.356 C 1637.211 742.616 1633.921 746.719 1629.915 750.666 L 1629.915 750.666 L 1629.915 750.666 C 1625.901 754.613 1620.918 757.526 1614.965 759.406 L 1614.965 759.406 L 1614.965 759.406 C 1609.011 761.286 1602.401 761.789 1595.135 760.916 L 1595.135 760.916 L 1592.875 744.556 L 1592.875 744.556 C 1600.395 742.549 1606.285 739.949 1610.545 736.756 L 1610.545 736.756 L 1610.545 736.756 C 1614.805 733.563 1618.128 729.269 1620.515 723.876 L 1620.515 723.876 L 1620.885 723.126 L 1615.625 723.126 L 1615.625 723.126 C 1610.985 723.126 1607.975 720.869 1606.595 716.356 L 1606.595 716.356 L 1576.335 630.446 L 1606.035 630.446 L 1623.335 690.416 L 1623.335 690.416 C 1624.461 694.803 1625.401 699.439 1626.155 704.326 L 1626.155 704.326 L 1628.595 704.326 L 1628.595 704.326 C 1628.968 702.819 1629.595 700.469 1630.475 697.276 L 1630.475 697.276 L 1630.475 697.276 C 1631.355 694.083 1631.981 691.796 1632.355 690.416 L 1632.355 690.416 L 1649.465 630.446 M 1704.919 682.326 L 1704.919 682.326 L 1692.329 682.326 L 1692.329 682.326 C 1690.949 673.306 1691.763 666.446 1694.769 661.746 L 1694.769 661.746 L 1694.769 661.746 C 1697.776 657.046 1702.036 654.759 1707.549 654.886 L 1707.549 654.886 L 1707.549 654.886 C 1711.563 655.133 1718.519 656.729 1728.419 659.676 L 1728.419 659.676 L 1728.419 659.676 C 1738.319 662.623 1744.273 664.219 1746.279 664.466 L 1746.279 664.466 L 1746.279 664.466 C 1749.166 664.973 1751.016 664.599 1751.829 663.346 L 1751.829 663.346 L 1751.829 663.346 C 1752.643 662.093 1753.049 659.586 1753.049 655.826 L 1753.049 655.826 L 1765.649 655.826 L 1765.649 655.826 C 1767.023 664.719 1766.239 671.549 1763.299 676.316 L 1763.299 676.316 L 1763.299 676.316 C 1760.353 681.076 1756.059 683.333 1750.419 683.086 L 1750.419 683.086 L 1750.419 683.086 C 1746.033 682.959 1738.949 681.423 1729.169 678.476 L 1729.169 678.476 L 1729.169 678.476 C 1719.396 675.529 1713.506 673.933 1711.499 673.686 L 1711.499 673.686 L 1711.499 673.686 C 1708.619 673.179 1706.803 673.553 1706.049 674.806 L 1706.049 674.806 L 1706.049 674.806 C 1705.296 676.059 1704.919 678.566 1704.919 682.326" style="white-space: pre; fill: rgb(255, 255, 255);" transform="matrix(1.8925979137420654, 0, 0, 2.8081870079040527, -1705.4234619140625, -1600.0849609375)"/>
  <g transform="matrix(1, 0, 0, 1, 6.999999999999972, 4)">
    <path d="M 208.351 129.927 L 208.351 209.872 L 140.692 284.233 L 208.351 358.632 L 208.351 438.577 L 112.023 323.873 L 112.023 244.631 L 208.351 129.927" style="white-space: pre;"/>
    <path d="M 360.873 129.927 L 457.201 244.631 L 457.201 323.873 L 360.873 438.577 L 360.873 358.632 L 428.532 284.233 L 360.873 209.872 L 360.873 129.927" style="white-space: pre;"/>
    <path d="M 357.152 85.275 L 257.621 496.499 L 227.983 496.499 L 327.514 85.275 L 357.152 85.275" style="white-space: pre;"/>
  </g>
</svg>